<svg width="914" height="400" viewBox="0 0 914 400" fill="none" xmlns="http://www.w3.org/2000/svg"><style>#CL0 {fill: #261822;}#CL1 {fill: #390709;}#CL2 {fill: #8B0304;}#CL3 {fill: #A70E13;}#CL4 {fill: #BA141A;}#CL5 {fill: #ED1C24;}@media (prefers-color-scheme: dark) {#CL0 {fill: #261822;}#CL1 {fill: #C6181F;}#CL2 {fill: #8B0304;}#CL3 {fill: #A70E13;}#CL4 {fill: #BA141A;}#CL5 {fill: #ED1C24;}}</style>
<path d="M474.896 189.292H481.772C485.732 189.292 485.66 195.844 481.7 195.844H474.896V189.292ZM471.296 185.836V211H482.672C487.496 211 489.98 207.184 489.98 203.404C489.98 201.028 488.936 198.364 486.056 197.14C488.576 195.34 488.9 192.46 487.892 189.976C486.956 187.636 484.94 185.836 481.772 185.836H471.296ZM474.896 199.444H482.672C485.12 199.444 486.344 201.46 486.344 203.44C486.344 205.42 485.12 207.472 482.672 207.472H474.896V199.444ZM502.809 211.252C507.129 211.252 512.097 208.588 512.097 203.476V185.836H508.425V203.44C508.425 206.212 505.437 207.616 502.809 207.616C500.145 207.616 497.157 206.248 497.157 203.476V185.836H493.485V203.44C493.485 208.588 498.381 211.252 502.809 211.252ZM528.684 185.836H515.688V189.292H520.368V207.508H515.688V211H528.684V207.508H524.004V189.292H528.684V185.836ZM535.721 185.8H532.085V211H547.565V207.364H535.721V185.8ZM554.318 207.364V189.472H559.718C565.55 189.472 568.502 193.972 568.502 198.436C568.502 202.9 565.55 207.364 559.718 207.364H554.318ZM550.682 185.836V211H559.718C567.962 211 572.102 204.736 572.102 198.436C572.102 192.136 567.962 185.836 559.718 185.836H550.682Z" id="CL1"/>
<mask id="mask0_63_45" style="mask-type:alpha" maskUnits="userSpaceOnUse" x="427" y="185" width="41" height="26">
<path d="M432.372 199.948L441.552 211H446.268L438.312 201.532C442.632 200.776 444.828 197.392 444.828 193.828C444.828 189.832 442.092 185.8 436.62 185.8H427.44V211H431.04V189.472H436.62C439.68 189.472 441.192 191.668 441.192 193.828C441.192 196.024 439.68 198.22 436.62 198.22H432.372V199.948ZM452.271 189.292H459.147C463.107 189.292 463.035 195.844 459.075 195.844H452.271V189.292ZM448.671 185.836V211H460.047C464.871 211 467.355 207.184 467.355 203.404C467.355 201.028 466.311 198.364 463.431 197.14C465.951 195.34 466.275 192.46 465.267 189.976C464.331 187.636 462.315 185.836 459.147 185.836H448.671ZM452.271 199.444H460.047C462.495 199.444 463.719 201.46 463.719 203.44C463.719 205.42 462.495 207.472 460.047 207.472H452.271V199.444Z" id="CL0"/>
</mask>
<g mask="url(#mask0_63_45)">
<path d="M405 197.637L421.639 216.998L460.459 216.998L476.848 197.637L476.848 197.334L440.999 161.043L405 197.334L405 197.637Z" id="CL4"/>
<path d="M421.646 217L417.487 209.248L427.538 217L421.646 217Z" id="CL2"/>
<path d="M417.486 209.248L419.566 197.337L432.045 209.097L432.045 209.135L427.537 217L417.486 209.248Z" id="CL5"/>
<path d="M419.566 197.337L421.532 180.698L441.052 161.035L419.566 197.337Z" id="CL2"/>
<path d="M434.329 180.524L419.566 197.337L441.052 161.035L441.113 161.141L434.329 180.524Z" id="CL5"/>
<path d="M419.566 197.337L434.329 180.524L428.452 197.337L419.566 197.337Z" id="CL4"/>
<path d="M419.566 197.337L428.453 197.337L432.045 209.097L419.566 197.337Z" id="CL3"/>
<path d="M427.537 217L432.045 209.135L441.052 216.992L441.052 217L427.537 217Z" id="CL4"/>
<path d="M432.045 209.097L428.453 197.337L440.961 197.337L441.052 197.563L441.052 197.624L432.045 209.097Z" id="CL2"/>
<path d="M428.452 197.337L434.329 180.524L440.961 197.337L428.452 197.337Z" id="CL3"/>
<path d="M432.045 209.135L432.045 209.097L441.052 197.624L450.067 209.127L441.052 216.992L432.045 209.135Z" id="CL5"/>
<path d="M434.329 180.524L441.113 161.141L441.302 161.458L447.859 180.033L441.143 197.337L440.962 197.337L434.329 180.524Z" id="CL4"/>
<path d="M441.052 197.624L441.052 197.563L441.143 197.337L453.977 197.337L450.067 209.127L441.052 197.624Z" id="CL4"/>
<path d="M441.052 217L441.052 216.992L450.067 209.127L450.067 209.135L454.575 217L441.052 217Z" id="CL2"/>
<path d="M441.143 197.337L447.859 180.033L447.866 180.04L453.977 197.337L441.143 197.337Z" id="CL3"/>
<path d="M441.204 161.186L460.587 180.706L462.357 197.337L441.302 161.458L441.204 161.186Z" id="CL3"/>
<path d="M447.859 180.033L441.302 161.458L462.357 197.337L447.866 180.04L447.859 180.033Z" id="CL2"/>
<path d="M453.977 197.337L447.866 180.04L462.357 197.337L453.977 197.337Z" id="CL5"/>
<path d="M454.574 217L450.067 209.135L462.357 197.337L464.565 209.248L454.574 217Z" id="CL4"/>
<path d="M450.067 209.135L450.067 209.127L453.977 197.337L462.357 197.337L450.067 209.135Z" id="CL3"/>
<path d="M454.574 217L464.565 209.248L460.466 217L454.574 217Z" id="CL3"/>
<path d="M460.466 217L464.565 209.248L477.104 197.639L460.466 217Z" id="CL4"/>
<path d="M462.357 197.337L460.587 180.706L460.595 180.713L470.048 197.337L462.357 197.337Z" id="CL4"/>
<path d="M470.048 197.337L460.595 180.713L477.104 197.337L470.048 197.337Z" id="CL3"/>
<path d="M464.565 209.248L462.357 197.337L470.048 197.337L464.565 209.248Z" id="CL5"/>
<path d="M464.565 209.248L470.048 197.337L477.104 197.337L477.104 197.639L464.565 209.248Z" id="CL2"/>
</g>
<path d="M375.116 227.967L375.106 227.957L375.095 227.967H375.116Z" id="CL4"/>
<path d="M375 227.955L375.064 228L375.095 227.967H375.039L375 227.955Z" id="CL4"/>
<path d="M411.104 191.363L394.466 172.002H355.646L339.257 191.363V191.666L375.106 227.957L411.104 191.666V191.363Z" id="CL4"/>
<path d="M374.961 227.967L374.976 227.892L374.931 227.839L374.961 227.967Z" id="CL4"/>
<path d="M411.097 191.361V191.663H404.858L398.618 179.752L411.097 191.361Z" id="CL2"/>
<path d="M394.458 172L411.097 191.361L398.618 179.752L394.458 172Z" id="CL4"/>
<path d="M411.097 191.663L394.572 208.302L404.857 191.663H411.097Z" id="CL3"/>
<path d="M398.618 179.752L404.857 191.663H396.538L398.618 179.752Z" id="CL4"/>
<path d="M404.857 191.663L394.572 208.302L396.538 191.663H404.857Z" id="CL5"/>
<path d="M394.458 172L398.618 179.752L388.567 172H394.458Z" id="CL2"/>
<path d="M398.618 179.752L396.538 191.663L384.06 179.903V179.865L388.567 172L398.618 179.752Z" id="CL5"/>
<path d="M396.538 191.663L394.572 208.302L375.052 227.965L396.538 191.663Z" id="CL2"/>
<path d="M381.776 208.476L396.538 191.663L375.052 227.965L374.992 227.859L381.776 208.476Z" id="CL5"/>
<path d="M396.539 191.663L381.776 208.476L387.652 191.663H396.539Z" id="CL4"/>
<path d="M396.538 191.663H387.652L384.06 179.903L396.538 191.663Z" id="CL3"/>
<path d="M388.567 172L384.06 179.865L375.052 172.008V172H388.567Z" id="CL4"/>
<path d="M384.06 179.903L387.652 191.663H375.143L375.052 191.437V191.376L384.06 179.903Z" id="CL2"/>
<path d="M387.652 191.663L381.776 208.476L375.143 191.663H387.652Z" id="CL3"/>
<path d="M384.059 179.865V179.903L375.052 191.376L366.037 179.873L375.052 172.008L384.059 179.865Z" id="CL5"/>
<path d="M381.776 208.476L374.992 227.859L374.803 227.542L368.246 208.967L374.961 191.663H375.143L381.776 208.476Z" id="CL4"/>
<path d="M375.052 191.376V191.437L374.962 191.663H362.127L366.037 179.873L375.052 191.376Z" id="CL4"/>
<path d="M375.052 172V172.008L366.037 179.873V179.865L361.53 172H375.052Z" id="CL2"/>
<path d="M374.962 191.663L368.246 208.967L368.238 208.96L362.127 191.663H374.962Z" id="CL3"/>
<path d="M374.901 227.814L355.517 208.294L353.748 191.663L374.803 227.542L374.901 227.814Z" id="CL3"/>
<path d="M368.246 208.967L374.803 227.542L353.748 191.663L368.238 208.96L368.246 208.967Z" id="CL2"/>
<path d="M362.127 191.663L368.238 208.96L353.748 191.663H362.127Z" id="CL5"/>
<path d="M361.53 172L366.038 179.865L353.748 191.663L351.54 179.752L361.53 172Z" id="CL4"/>
<path d="M366.037 179.865V179.873L362.127 191.663H353.748L366.037 179.865Z" id="CL3"/>
<path d="M361.53 172L351.54 179.752L355.639 172H361.53Z" id="CL3"/>
<path d="M355.638 172L351.539 179.752L339 191.361L355.638 172Z" id="CL4"/>
<path d="M353.748 191.663L355.517 208.294L355.51 208.287L346.056 191.663H353.748Z" id="CL4"/>
<path d="M346.056 191.663L355.51 208.287L339 191.663H346.056Z" id="CL3"/>
<path d="M351.539 179.752L353.748 191.663H346.056L351.539 179.752Z" id="CL5"/>
<path d="M351.539 179.752L346.056 191.663H339V191.361L351.539 179.752Z" id="CL2"/>
</svg>
